<?xml version="1.0" standalone="no"?><!DOCTYPE svg PUBLIC "-//W3C//DTD SVG 1.1//EN" "http://www.w3.org/Graphics/SVG/1.1/DTD/svg11.dtd"><svg xmlns:xlink="http://www.w3.org/1999/xlink" version="1.1" class="highcharts-root" style="font-family:&quot;Lucida Grande&quot;, &quot;Lucida Sans Unicode&quot;, Arial, Helvetica, sans-serif;font-size:12px;" xmlns="http://www.w3.org/2000/svg" width="600" height="550" viewBox="0 0 600 550"><desc>Created with Highcharts 6.1.4</desc><defs><clipPath id="highcharts-kjzsbf4-10"><rect x="0" y="0" width="495" height="427" fill="none"></rect></clipPath></defs><rect fill="#ffffff" class="highcharts-background" x="0" y="0" width="600" height="550" rx="0" ry="0"></rect><rect fill="none" class="highcharts-plot-background" x="95" y="86" width="495" height="427"></rect><g class="highcharts-grid highcharts-xaxis-grid " data-z-index="1"><path fill="none" data-z-index="1" class="highcharts-grid-line" d="M 153.5 86 L 153.5 513" opacity="1"></path><path fill="none" data-z-index="1" class="highcharts-grid-line" d="M 280.5 86 L 280.5 513" opacity="1"></path><path fill="none" data-z-index="1" class="highcharts-grid-line" d="M 408.5 86 L 408.5 513" opacity="1"></path><path fill="none" data-z-index="1" class="highcharts-grid-line" d="M 535.5 86 L 535.5 513" opacity="1"></path></g><g class="highcharts-grid highcharts-yaxis-grid " data-z-index="1"><path fill="none" stroke="#e6e6e6" stroke-width="1" data-z-index="1" class="highcharts-grid-line" d="M 95 513.5 L 590 513.5" opacity="1"></path><path fill="none" stroke="#e6e6e6" stroke-width="1" data-z-index="1" class="highcharts-grid-line" d="M 95 442.5 L 590 442.5" opacity="1"></path><path fill="none" stroke="#e6e6e6" stroke-width="1" data-z-index="1" class="highcharts-grid-line" d="M 95 371.5 L 590 371.5" opacity="1"></path><path fill="none" stroke="#e6e6e6" stroke-width="1" data-z-index="1" class="highcharts-grid-line" d="M 95 300.5 L 590 300.5" opacity="1"></path><path fill="none" stroke="#e6e6e6" stroke-width="1" data-z-index="1" class="highcharts-grid-line" d="M 95 228.5 L 590 228.5" opacity="1"></path><path fill="none" stroke="#e6e6e6" stroke-width="1" data-z-index="1" class="highcharts-grid-line" d="M 95 157.5 L 590 157.5" opacity="1"></path><path fill="none" stroke="#e6e6e6" stroke-width="1" data-z-index="1" class="highcharts-grid-line" d="M 95 85.5 L 590 85.5" opacity="1"></path></g><rect fill="none" class="highcharts-plot-border" data-z-index="1" x="95" y="86" width="495" height="427"></rect><g class="highcharts-axis highcharts-xaxis " data-z-index="2"><path fill="none" class="highcharts-tick" stroke="#ccd6eb" stroke-width="1" d="M 153.5 513 L 153.5 523" opacity="1"></path><path fill="none" class="highcharts-tick" stroke="#ccd6eb" stroke-width="1" d="M 280.5 513 L 280.5 523" opacity="1"></path><path fill="none" class="highcharts-tick" stroke="#ccd6eb" stroke-width="1" d="M 408.5 513 L 408.5 523" opacity="1"></path><path fill="none" class="highcharts-tick" stroke="#ccd6eb" stroke-width="1" d="M 535.5 513 L 535.5 523" opacity="1"></path><path fill="none" class="highcharts-axis-line" stroke="#ccd6eb" stroke-width="1" data-z-index="7" d="M 95 513.5 L 590 513.5"></path></g><g class="highcharts-axis highcharts-yaxis " data-z-index="2"><text x="26.21875" data-z-index="7" text-anchor="middle" transform="translate(0,0) rotate(270 26.21875 299.5)" class="highcharts-axis-title" style="color:#666666;fill:#666666;" y="299.5"><tspan>Transactions per Day</tspan></text><path fill="none" class="highcharts-axis-line" data-z-index="7" d="M 95 86 L 95 513"></path></g><g class="highcharts-series-group" data-z-index="3"><g data-z-index="0.1" class="highcharts-series highcharts-series-0 highcharts-line-series highcharts-color-0 " transform="translate(95,86) scale(1 1)" clip-path="url(#highcharts-kjzsbf4-10)"><path fill="none" d="M 4.8529411764706 424.4684593333333 L 5.2015720081136 427 L 5.5502028397566 427 L 5.8988336713996 427 L 6.2474645030426 427 L 6.5960953346856 427 L 6.9447261663286 427 L 7.2933569979716 427 L 7.6419878296146 426.4164333333333 L 7.9906186612576 426.1798753333333 L 8.3392494929006 426.621678 L 8.6878803245436 426.420134 L 9.0365111561866 425.58719933333333 L 9.3851419878296 426.42041866666665 L 9.7337728194726 426.1909773333333 L 10.082403651116 426.096468 L 10.431034482759 426.34982133333335 L 10.779665314402 426.3054133333333 L 11.128296146045 426.28491733333334 L 11.476926977688 426.2900413333333 L 11.825557809331 426.075972 L 12.174188640974 426.34441266666664 L 12.522819472617 425.8843913333333 L 12.87145030426 425.981178 L 13.220081135903 425.8072466666667 L 13.568711967546 425.73835733333334 L 13.917342799189 425.72270066666664 L 14.265973630832 425.81692533333336 L 14.614604462475 425.4087133333333 L 14.963235294118 425.645556 L 15.311866125761 425.8217646666667 L 15.660496957404 425.698504 L 16.009127789047 425.520872 L 16.35775862069 425.5331126666667 L 16.706389452333 425.5211566666667 L 17.055020283976 425.64014733333335 L 17.403651115619 425.39391066666667 L 17.752281947262 425.42892466666666 L 18.100912778905 425.42835533333334 L 18.449543610548 425.37683066666665 L 18.798174442191 425.399604 L 19.146805273834 425.404728 L 19.495436105477 425.47959533333335 L 19.84406693712 425.1610533333333 L 20.192697768763 425.40700533333336 L 20.541328600406 425.275774 L 20.889959432049 425.41383733333333 L 21.238590263692 425.460238 L 21.587221095335 425.32843733333334 L 21.935851926978 425.4719093333333 L 22.284482758621 425.348364 L 22.633113590264 425.51831 L 22.981744421907 425.177564 L 23.33037525355 425.20517666666666 L 23.679006085193 425.063128 L 24.027636916836 424.892328 L 24.376267748479 425.22823466666665 L 24.724898580122 425.3344153333333 L 25.073529411765 425.318474 L 25.422160243408 425.36032 L 25.770791075051 425.256986 L 26.119421906694 425.36658266666666 L 26.468052738337 425.32900666666666 L 26.81668356998 425.1721553333333 L 27.165314401623 425.274066 L 27.513945233266 425.2601173333333 L 27.862576064909 425.114368 L 28.211206896552 425.212578 L 28.559837728195 425.1616226666667 L 28.908468559838 424.9728886666667 L 29.257099391481 425.02839866666665 L 29.605730223124 425.0747993333333 L 29.954361054767 425.14141133333334 L 30.30299188641 425.2854526666667 L 30.651622718053 425.1231926666667 L 31.000253549696 425.0591426666667 L 31.348884381339 425.05572666666666 L 31.697515212982 425.1499513333333 L 32.046146044625 425.06569 L 32.394776876268 425.130594 L 32.743407707911 425.15507533333334 L 33.092038539554 425.12006133333335 L 33.440669371197 425.3213206666667 L 33.78930020284 425.24019066666665 L 34.137931034483 425.297978 L 34.486561866126 425.039216 L 34.835192697769 425.18923533333333 L 35.183823529412 425.34039333333334 L 35.532454361055 425.3096493333333 L 35.881085192698 425.06882133333335 L 36.229716024341 424.90883866666667 L 36.578346855984 424.769352 L 36.926977687627 424.739462 L 37.27560851927 424.848774 L 37.624239350913 425.03153 L 37.972870182556 425.133156 L 38.321501014199 424.89375133333334 L 38.670131845842 424.9968006666667 L 39.018762677485 424.8655693333333 L 39.367393509128 424.75625733333334 L 39.716024340771 423.8698053333333 L 40.064655172414 423.46643266666666 L 40.413286004057 424.811198 L 40.7619168357 424.679682 L 41.110547667343 424.0915606666667 L 41.459178498986 424.285988 L 41.807809330629 424.7536953333333 L 42.156440162272 424.9472686666667 L 42.505070993915 424.95894 L 42.853701825558 424.88151066666666 L 43.202332657201 424.96605666666665 L 43.550963488844 424.9011526666667 L 43.899594320487 424.47329866666666 L 44.24822515213 425.192936 L 44.596855983773 425.058004 L 44.945486815416 424.983706 L 45.294117647059 424.64865333333336 L 45.642748478702 424.964064 L 45.991379310345 424.979436 L 46.340010141988 424.928196 L 46.688640973631 425.110098 L 47.037271805274 425.05942733333336 L 47.385902636917 425.0491793333333 L 47.73453346856 424.4419853333333 L 48.083164300203 425.06597466666665 L 48.431795131846 425.1490973333333 L 48.780425963489 425.01558866666664 L 49.129056795132 425.0363693333333 L 49.477687626775 425.06882133333335 L 49.826318458418 424.40867933333334 L 50.174949290061 424.96719533333334 L 50.523580121704 425.09358733333335 L 50.872210953347 425.00704866666666 L 51.22084178499 424.88094133333334 L 51.569472616633 424.69277666666665 L 51.918103448276 424.66431 L 52.266734279919 424.8860653333333 L 52.615365111562 422.57343333333336 L 52.963995943205 420.99410266666666 L 53.312626774848 424.0667946666667 L 53.661257606491 424.263784 L 54.009888438134 424.4288906666667 L 54.358519269777 424.34861466666666 L 54.70715010142 424.187778 L 55.055780933063 423.566066 L 55.404411764706 421.014314 L 55.753042596349 420.52668 L 56.101673427992 423.158708 L 56.450304259635 424.2896886666667 L 56.798935091278 423.9466653333333 L 57.147565922921 420.775194 L 57.496196754564 423.47924266666666 L 57.844827586207 423.766756 L 58.19345841785 420.80366066666664 L 58.542089249493 424.0676486666667 L 58.890720081136 424.65633933333334 L 59.239350912779 424.3913146666667 L 59.587981744422 424.364556 L 59.936612576065 424.303068 L 60.285243407708 422.32292666666666 L 60.633874239351 422.13960133333336 L 60.982505070994 420.7159833333333 L 61.331135902637 423.8917246666667 L 61.67976673428 423.642926 L 62.028397565923 424.06224 L 62.377028397566 423.899126 L 62.725659229209 423.9079506666667 L 63.074290060852 421.97136333333333 L 63.422920892495 423.967446 L 63.771551724138 424.18891666666667 L 64.120182555781 423.96431466666667 L 64.468813387424 424.225354 L 64.817444219067 423.3232453333333 L 65.16607505071 423.17977333333334 L 65.514705882353 423.9796866666667 L 65.863336713996 423.944388 L 66.211967545639 423.057936 L 66.560598377282 423.86155 L 66.909229208925 423.356836 L 67.257860040568 422.126222 L 67.606490872211 422.29986866666667 L 67.955121703854 421.663354 L 68.303752535497 422.2275633333333 L 68.65238336714 422.33289 L 69.001014198783 422.826502 L 69.349645030426 422.967412 L 69.698275862069 422.958018 L 70.046906693712 422.93182866666666 L 70.395537525355 422.936668 L 70.744168356998 422.90905533333336 L 71.092799188641 422.659118 L 71.441430020284 418.05634266666664 L 71.790060851927 422.93951466666664 L 72.13869168357 422.80999133333336 L 72.487322515213 422.58282733333334 L 72.835953346856 422.12052866666664 L 73.184584178499 420.8967466666667 L 73.533215010142 421.8449713333333 L 73.881845841785 421.4982473333333 L 74.230476673428 422.2677013333333 L 74.579107505071 422.1154046666667 L 74.927738336714 422.0043846666667 L 75.276369168357 421.3095133333333 L 75.625 422.1694913333333 L 75.973630831643 421.7587173333333 L 76.322261663286 422.2420813333333 L 76.670892494929 422.12679133333336 L 77.019523326572 421.8219133333333 L 77.368154158215 421.73879066666666 L 77.716784989858 421.43761333333333 L 78.065415821501 421.448146 L 78.414046653144 421.00264266666665 L 78.762677484787 421.596742 L 79.11130831643 421.5733993333333 L 79.459939148073 421.204756 L 79.808569979716 420.8005293333333 L 80.157200811359 420.292684 L 80.505831643002 419.929734 L 80.854462474645 420.08630066666666 L 81.203093306288 419.28126333333336 L 81.551724137931 419.1258353333333 L 81.900354969574 420.375522 L 82.248985801217 420.13839466666667 L 82.59761663286 420.00944066666665 L 82.946247464503 419.93628133333334 L 83.294878296146 420.417368 L 83.643509127789 419.0615006666667 L 83.992139959432 418.99318066666666 L 84.340770791075 418.87902933333334 L 84.689401622718 418.66695266666665 L 85.038032454361 419.14433866666667 L 85.386663286004 417.454842 L 85.735294117647 417.941622 L 86.08392494929 417.099578 L 86.432555780933 417.76342066666666 L 86.781186612576 417.745202 L 87.129817444219 417.63731333333334 L 87.478448275862 417.95158533333336 L 87.827079107505 416.48242066666666 L 88.175709939148 416.535084 L 88.524340770791 416.56810533333334 L 88.872971602434 418.4674013333333 L 89.221602434077 417.4314993333333 L 89.57023326572 417.34553 L 89.918864097363 416.53366066666666 L 90.267494929006 417.816938 L 90.616125760649 417.51490666666666 L 90.964756592292 418.642756 L 91.313387423935 418.5772826666667 L 91.662018255578 417.06314066666664 L 92.010649087221 415.84875266666666 L 92.359279918864 417.8684626666667 L 92.707910750507 417.921126 L 93.05654158215 417.3184866666667 L 93.405172413793 417.912586 L 93.753803245436 417.82320066666665 L 94.102434077079 418.366914 L 94.451064908722 417.12975266666666 L 94.799695740365 416.737482 L 95.148326572008 417.0990086666667 L 95.496957403651 417.048338 L 95.845588235294 418.322506 L 96.194219066937 415.555546 L 96.54284989858 417.459966 L 96.891480730223 417.713604 L 97.240111561866 417.6219413333333 L 97.588742393509 416.4158086666667 L 97.937373225152 417.9823293333333 L 98.286004056795 417.93479 L 98.634634888438 417.3082386666667 L 98.983265720081 416.91426 L 99.331896551724 417.72499066666666 L 99.680527383367 417.36488733333334 L 100.02915821501 417.2236926666667 L 100.37778904665 416.372824 L 100.7264198783 413.97109133333333 L 101.07505070994 415.73346266666664 L 101.42368154158 415.115736 L 101.77231237323 416.233622 L 102.12094320487 416.3295546666667 L 102.46957403651 415.9814073333333 L 102.81820486815 415.251522 L 103.1668356998 416.79071466666664 L 103.51546653144 415.5953993333333 L 103.86409736308 416.02325333333334 L 104.21272819473 415.4186213333333 L 104.56135902637 415.3824686666667 L 104.90998985801 414.1894306666667 L 105.25862068966 413.41086733333333 L 105.6072515213 413.9779233333333 L 105.95588235294 414.7385526666667 L 106.30451318458 416.34663466666666 L 106.65314401623 415.52537133333334 L 107.00177484787 413.89593933333333 L 107.35040567951 414.325786 L 107.69903651116 414.139614 L 108.0476673428 414.58255533333335 L 108.39629817444 415.92789 L 108.74492900609 414.529892 L 109.09355983773 414.7846686666667 L 109.44219066937 413.779226 L 109.79082150101 412.440154 L 110.13945233266 413.0496253333333 L 110.4880831643 407.0312026666667 L 110.83671399594 413.93664666666666 L 111.18534482759 414.780114 L 111.53397565923 414.3647853333333 L 111.88260649087 414.98108866666666 L 112.23123732252 415.708412 L 112.57986815416 415.660588 L 112.9284989858 416.21825 L 113.27712981744 416.212272 L 113.62576064909 415.91024066666665 L 113.97439148073 413.8651953333333 L 114.32302231237 415.49007266666666 L 114.67165314402 415.6548946666667 L 115.02028397566 415.57205666666664 L 115.3689148073 416.49551533333334 L 115.71754563895 414.87860866666665 L 116.06617647059 413.85267 L 116.41480730223 412.67130333333336 L 116.76343813387 414.687882 L 117.11206896552 414.647744 L 117.46069979716 408.053156 L 117.8093306288 409.04237266666667 L 118.15796146045 412.47203666666667 L 118.50659229209 413.587076 L 118.85522312373 413.52871933333336 L 119.20385395538 413.16093 L 119.55248478702 415.07018933333336 L 119.90111561866 414.09577533333334 L 120.2497464503 416.55728799999997 L 120.59837728195 415.154166 L 120.94700811359 415.709266 L 121.29563894523 414.733998 L 121.64426977688 412.79598733333336 L 121.99290060852 408.79499733333336 L 122.34153144016 415.58913666666666 L 122.69016227181 415.82484066666666 L 123.03879310345 415.6825073333333 L 123.38742393509 415.62756666666667 L 123.73605476673 415.82114 L 124.08468559838 416.21113333333335 L 124.43331643002 415.49007266666666 L 124.78194726166 414.8999586666667 L 125.13057809331 415.49662 L 125.47920892495 415.7960893333333 L 125.82783975659 416.0169906666667 L 126.17647058824 415.3824686666667 L 126.52510141988 416.8260133333333 L 126.87373225152 414.8137046666667 L 127.22236308316 415.2973533333333 L 127.57099391481 416.1650173333333 L 127.91962474645 417.3458146666667 L 128.26825557809 415.841636 L 128.61688640974 414.422288 L 128.96551724138 412.587042 L 129.31414807302 414.22359066666667 L 129.66277890467 413.20562266666667 L 130.01140973631 414.188292 L 130.36004056795 410.42813 L 130.70867139959 411.3843253333333 L 131.05730223124 409.3705933333333 L 131.40593306288 411.9027033333333 L 131.75456389452 413.17801 L 132.10319472617 413.55149266666666 L 132.45182555781 415.04086866666665 L 132.80045638945 413.1227846666667 L 133.1490872211 413.911596 L 133.49771805274 413.039662 L 133.84634888438 412.91611666666665 L 134.19497971602 413.688702 L 134.54361054767 414.698984 L 134.89224137931 415.190034 L 135.24087221095 414.77214333333336 L 135.5895030426 414.763888 L 135.93813387424 413.6044406666667 L 136.28676470588 413.82278 L 136.63539553753 413.287322 L 136.98402636917 414.3608 L 137.33265720081 415.303616 L 137.68128803245 415.44908066666665 L 138.0299188641 414.9580306666667 L 138.37854969574 413.06585133333334 L 138.72718052738 414.2278606666667 L 139.07581135903 413.393218 L 139.42444219067 414.774136 L 139.77307302231 415.23814266666665 L 140.12170385396 414.889426 L 140.4703346856 414.4035 L 140.81896551724 413.21359333333334 L 141.16759634888 413.671622 L 141.51622718053 412.80424266666665 L 141.86485801217 413.537544 L 142.21348884381 413.35364933333335 L 142.56211967546 414.87120733333336 L 142.9107505071 414.04482 L 143.25938133874 413.62664466666666 L 143.60801217039 413.949172 L 143.95664300203 413.4808953333333 L 144.30527383367 411.225766 L 144.65390466531 414.24921066666667 L 145.00253549696 413.29956266666665 L 145.3511663286 414.85412733333334 L 145.69979716024 413.0222973333333 L 146.04842799189 413.13644866666664 L 146.39705882353 411.06720666666666 L 146.74568965517 411.65134266666666 L 147.09432048682 414.79491666666667 L 147.44295131846 414.6611233333333 L 147.7915821501 414.154986 L 148.14021298174 414.875762 L 148.48884381339 411.668138 L 148.83747464503 412.02027066666665 L 149.18610547667 410.62255733333336 L 149.53473630832 413.6542573333333 L 149.88336713996 416.213126 L 150.2319979716 415.4695766666667 L 150.58062880325 411.6089273333333 L 150.92925963489 414.31838466666665 L 151.27789046653 412.01030733333334 L 151.62652129817 416.9743246666667 L 151.97515212982 414.64034266666664 L 152.32378296146 415.9796993333333 L 152.6724137931 414.6130146666667 L 153.02104462475 413.67276066666665 L 153.36967545639 414.81712066666665 L 153.71830628803 415.494912 L 154.06693711968 416.7986853333333 L 154.41556795132 411.891032 L 154.76419878296 412.45211 L 155.1128296146 413.42937066666667 L 155.46146044625 410.87021733333336 L 155.81009127789 415.1239913333333 L 156.15872210953 416.5168653333333 L 156.50735294118 414.55778933333335 L 156.85598377282 416.27091333333334 L 157.20461460446 414.49174666666664 L 157.55324543611 414.20708 L 157.90187626775 415.31357933333334 L 158.25050709939 418.45943066666666 L 158.59913793103 417.821208 L 158.94776876268 415.042292 L 159.29639959432 417.41755066666667 L 159.64503042596 417.03951333333333 L 159.99366125761 416.143952 L 160.34229208925 412.2263693333333 L 160.69092292089 416.0411873333333 L 161.03955375254 414.63464933333336 L 161.38818458418 410.55196 L 161.73681541582 416.24757066666666 L 162.08544624746 416.933048 L 162.43407707911 412.0416206666667 L 162.78270791075 413.44702 L 163.13133874239 414.14502266666665 L 163.47996957404 414.37417933333336 L 163.82860040568 415.18007066666667 L 164.17723123732 415.610202 L 164.52586206897 415.77417 L 164.87449290061 414.18117533333333 L 165.22312373225 413.04421666666667 L 165.57175456389 414.6115913333333 L 165.92038539554 414.94550533333336 L 166.26901622718 417.72783733333335 L 166.61764705882 416.27091333333334 L 166.96627789047 417.2100286666667 L 167.31490872211 415.0607953333333 L 167.66353955375 415.16669133333335 L 168.0121703854 415.46616066666667 L 168.36080121704 415.566648 L 168.70943204868 415.30874 L 169.05806288032 415.36225733333333 L 169.40669371197 414.56775266666665 L 169.75532454361 414.50996533333335 L 170.10395537525 414.09606 L 170.4525862069 415.1339546666667 L 170.80121703854 415.40324933333335 L 171.14984787018 414.53587 L 171.49847870183 415.81573133333336 L 171.84710953347 415.0084166666667 L 172.19574036511 414.83477 L 172.54437119675 411.74613666666664 L 172.8930020284 408.6990646666667 L 173.24163286004 416.506902 L 173.59026369168 410.46798333333334 L 173.93889452333 415.3844613333333 L 174.28752535497 414.34685133333335 L 174.63615618661 413.22554933333333 L 174.98478701826 413.61041866666665 L 175.3334178499 415.84732933333333 L 175.68204868154 416.43288866666666 L 176.03067951318 415.1459106666667 L 176.37931034483 415.22704066666665 L 176.72794117647 415.71495933333335 L 177.07657200811 415.154166 L 177.42520283976 413.27906666666667 L 177.7738336714 415.113174 L 178.12246450304 415.7309006666667 L 178.47109533469 415.20227466666665 L 178.81972616633 415.45278133333335 L 179.16835699797 415.85131466666667 L 179.51698782961 415.97172866666665 L 179.86561866126 414.285648 L 180.2142494929 413.53697466666665 L 180.56288032454 413.87629733333335 L 180.91151115619 414.488046 L 181.26014198783 415.77217733333333 L 181.60877281947 416.56981333333334 L 181.95740365112 414.01948466666664 L 182.30603448276 414.406062 L 182.6546653144 412.540926 L 183.00329614604 411.294086 L 183.35192697769 414.363362 L 183.70055780933 416.2518406666667 L 184.04918864097 416.58091533333334 L 184.39781947262 417.1604966666667 L 184.74645030426 414.9386733333333 L 185.0950811359 414.649452 L 185.44371196755 413.74990533333334 L 185.79234279919 414.3149686666667 L 186.14097363083 415.26604 L 186.48960446247 415.97486 L 186.83823529412 415.71239733333334 L 187.18686612576 413.93863933333336 L 187.5354969574 412.575086 L 187.88412778905 412.881672 L 188.23275862069 414.53046133333334 L 188.58138945233 414.58227066666666 L 188.93002028398 414.8370473333333 L 189.27865111562 413.851816 L 189.62728194726 413.2850446666667 L 189.9759127789 414.1270886666667 L 190.32454361055 412.598998 L 190.67317444219 412.52953933333333 L 191.02180527383 415.03147466666667 L 191.37043610548 415.115736 L 191.71906693712 414.08325 L 192.06769776876 413.714322 L 192.41632860041 414.191708 L 192.76495943205 414.58056266666665 L 193.11359026369 413.9693833333333 L 193.46222109533 414.673364 L 193.81085192698 413.49769066666664 L 194.15948275862 413.88369866666665 L 194.50811359026 412.6488146666667 L 194.85674442191 413.83245866666664 L 195.20537525355 413.66165866666665 L 195.55400608519 413.71176 L 195.90263691684 414.136198 L 196.25126774848 414.8991046666667 L 196.59989858012 414.084958 L 196.94852941176 414.5745846666667 L 197.29716024341 414.32066199999997 L 197.64579107505 414.55750466666666 L 197.99442190669 414.8225293333333 L 198.34305273834 414.07328666666666 L 198.69168356998 413.751044 L 199.04031440162 413.5335586666667 L 199.38894523327 412.23547866666667 L 199.73757606491 412.45666466666665 L 200.08620689655 413.3721526666667 L 200.43483772819 412.13413733333334 L 200.78346855984 413.74592 L 201.13209939148 414.09919133333335 L 201.48073022312 411.0615133333333 L 201.82936105477 410.40450266666664 L 202.17799188641 411.25224 L 202.52662271805 412.859468 L 202.8752535497 412.9357586666667 L 203.22388438134 412.938036 L 203.57251521298 413.2713806666667 L 203.92114604462 412.7233973333333 L 204.26977687627 410.365788 L 204.61840770791 412.6607706666667 L 204.96703853955 413.449582 L 205.3156693712 411.604942 L 205.66430020284 411.8429233333333 L 206.01293103448 412.2781786666667 L 206.36156186613 412.0145773333333 L 206.71019269777 409.8411473333333 L 207.05882352941 409.98433466666665 L 207.40745436105 406.851578 L 207.7560851927 408.6976413333333 L 208.10471602434 410.27412533333336 L 208.45334685598 410.76517533333333 L 208.80197768763 410.76830666666666 L 209.15060851927 409.182998 L 209.49923935091 411.233452 L 209.84787018256 408.705612 L 210.1965010142 408.45909066666667 L 210.54513184584 408.552746 L 210.89376267748 408.0281053333333 L 211.24239350913 403.73760933333335 L 211.59102434077 405.0365433333333 L 211.93965517241 403.88364333333334 L 212.28828600406 395.7009 L 212.6369168357 396.64457 L 212.98554766734 401.40277333333336 L 213.33417849899 402.91748466666667 L 213.68280933063 404.1515146666667 L 214.03144016227 403.00316933333335 L 214.38007099391 404.5622886666667 L 214.72870182556 403.533788 L 215.0773326572 402.0133833333333 L 215.42596348884 402.97584133333334 L 215.77459432049 404.35932133333336 L 216.12322515213 400.0790733333333 L 216.47185598377 402.988936 L 216.82048681542 400.50778133333336 L 217.16911764706 399.61250466666667 L 217.5177484787 397.65029733333336 L 217.86637931034 404.0638373333333 L 218.21501014199 401.6794693333333 L 218.56364097363 398.470422 L 218.91227180527 402.43924466666664 L 219.26090263692 402.117002 L 219.60953346856 399.90628066666665 L 219.9581643002 400.56983866666667 L 220.30679513185 406.463008 L 220.65542596349 405.77610733333336 L 221.00405679513 405.51136733333334 L 221.35268762677 405.396362 L 221.70131845842 404.1278873333333 L 222.04994929006 403.05270133333335 L 222.3985801217 403.89787666666666 L 222.74721095335 405.70124 L 223.09584178499 406.89285466666666 L 223.44447261663 406.348572 L 223.79310344828 403.28641266666665 L 224.14173427992 402.594388 L 224.49036511156 402.6752333333333 L 224.8389959432 403.8628626666667 L 225.18762677485 406.065898 L 225.53625760649 405.059886 L 225.88488843813 404.0755086666667 L 226.23351926978 400.516606 L 226.58215010142 401.48191066666664 L 226.93078093306 397.25404133333336 L 227.27941176471 396.7703926666667 L 227.62804259635 400.99997 L 227.97667342799 399.899164 L 228.32530425963 395.05983066666664 L 228.67393509128 395.58589466666666 L 229.02256592292 399.2922546666667 L 229.37119675456 394.2983473333333 L 229.71982758621 396.10968133333336 L 230.06845841785 399.9526813333333 L 230.41708924949 396.6457086666667 L 230.76572008114 393.54910466666666 L 231.11435091278 394.85173933333334 L 231.46298174442 395.77975266666664 L 231.81161257606 393.640198 L 232.16024340771 396.472062 L 232.50887423935 398.15415733333333 L 232.85750507099 398.1496026666667 L 233.20613590264 392.04521066666666 L 233.55476673428 393.88159533333334 L 233.90339756592 387.10823666666664 L 234.25202839757 387.884238 L 234.60065922921 381.006976 L 234.94929006085 389.73371733333335 L 235.29792089249 384.38568466666663 L 235.64655172414 376.82607666666667 L 235.99518255578 373.73288866666667 L 236.34381338742 373.683926 L 236.69244421907 374.9031533333333 L 237.04107505071 378.658476 L 237.38970588235 384.4565666666667 L 237.738336714 382.799522 L 238.08696754564 381.866954 L 238.43559837728 371.88340933333336 L 238.78422920892 366.0454653333333 L 239.13286004057 370.3057866666667 L 239.48149087221 371.5153353333333 L 239.83012170385 376.9937453333333 L 240.1787525355 375.7212853333333 L 240.52738336714 372.82651 L 240.87601419878 369.917786 L 241.22464503043 368.02276 L 241.57327586207 373.56806666666665 L 241.92190669371 365.5601086666667 L 242.27053752535 366.26465866666666 L 242.619168357 358.5405133333333 L 242.96779918864 343.609462 L 243.31643002028 347.27796133333334 L 243.66506085193 355.71662 L 244.01369168357 352.5263606666667 L 244.36232251521 356.4018126666667 L 244.71095334686 358.104404 L 245.0595841785 356.98424066666666 L 245.40821501014 345.525838 L 245.75684584178 339.1837493333333 L 246.10547667343 364.006398 L 246.45410750507 346.0906166666667 L 246.80273833671 348.428584 L 247.15136916836 355.6710733333333 L 247.5 361.20357 L 247.84863083164 336.821016 L 248.19726166329 354.98075666666665 L 248.54589249493 348.93272866666666 L 248.89452332657 351.9074953333333 L 249.24315415822 355.0783973333333 L 249.59178498986 358.54763 L 249.9404158215 356.22702733333335 L 250.28904665314 341.02155733333336 L 250.63767748479 346.8762966666667 L 250.98630831643 349.6828253333333 L 251.33493914807 353.33082866666666 L 251.68356997972 342.912598 L 252.03220081136 356.362244 L 252.380831643 362.896198 L 252.72946247465 340.85047266666663 L 253.07809330629 343.9692806666667 L 253.42672413793 346.2036293333333 L 253.77535496957 352.77459 L 254.12398580122 356.009542 L 254.47261663286 360.96843533333333 L 254.8212474645 356.078716 L 255.16987829615 356.2680193333333 L 255.51850912779 349.83967666666666 L 255.86713995943 350.1052706666667 L 256.21577079108 355.81483000000003 L 256.56440162272 360.79792 L 256.91303245436 368.4799346666667 L 257.261663286 352.84718 L 257.61029411765 352.1056233333333 L 257.95892494929 357.83852533333334 L 258.30755578093 363.51648666666665 L 258.65618661258 362.82617 L 259.00481744422 356.83137466666665 L 259.35344827586 370.41595266666667 L 259.70207910751 368.1810346666667 L 260.05070993915 355.8077133333333 L 260.39934077079 364.7769906666667 L 260.74797160243 361.2226426666667 L 261.09660243408 359.7233033333333 L 261.44523326572 353.79512 L 261.79386409736 352.5881333333333 L 262.14249492901 351.52718066666665 L 262.49112576065 346.959704 L 262.83975659229 336.22947866666664 L 263.18838742394 347.205656 L 263.53701825558 330.714062 L 263.88564908722 325.464524 L 264.23427991886 330.5964946666667 L 264.58291075051 332.20286866666663 L 264.93154158215 310.269302 L 265.28017241379 309.36263866666667 L 265.62880324544 309.2550346666667 L 265.97743407708 305.160674 L 266.32606490872 300.79132533333336 L 266.67469574037 319.561676 L 267.02332657201 338.7743986666667 L 267.37195740365 315.16016 L 267.72058823529 323.17438066666665 L 268.06921906694 320.33226866666666 L 268.41784989858 326.66496333333333 L 268.76648073022 326.6205553333333 L 269.11511156187 339.8157093333333 L 269.46374239351 334.71875266666666 L 269.81237322515 323.4385513333333 L 270.1610040568 314.6565846666667 L 270.50963488844 313.07070666666664 L 270.85826572008 317.5681553333333 L 271.20689655172 315.69618733333334 L 271.55552738337 332.548454 L 271.90415821501 340.88121666666666 L 272.25278904665 301.00881066666665 L 272.6014198783 300.4451706666666 L 272.95005070994 285.6982986666667 L 273.29868154158 299.37055399999997 L 273.64731237323 295.00860666666665 L 273.99594320487 317.78649466666667 L 274.34457403651 334.446896 L 274.69320486815 322.98735466666665 L 275.0418356998 311.739036 L 275.39046653144 322.903378 L 275.73909736308 318.75521533333335 L 276.08772819473 301.24366066666664 L 276.43635902637 320.601848 L 276.78498985801 344.58416066666666 L 277.13362068966 323.73318133333333 L 277.4822515213 330.85326399999997 L 277.83088235294 334.487888 L 278.17951318458 336.7396013333333 L 278.52814401623 349.72154 L 278.87677484787 352.95620733333334 L 279.22540567951 347.02887799999996 L 279.57403651116 339.7172146666667 L 279.9226673428 339.87065 L 280.27129817444 339.0246206666667 L 280.61992900609 333.285456 L 280.96855983773 334.055764 L 281.31719066937 342.7961693333333 L 281.66582150101 346.1913886666667 L 282.01445233266 339.86495666666667 L 282.3630831643 333.656092 L 282.71171399594 339.4937513333333 L 283.06034482759 337.384656 L 283.40897565923 335.9402573333333 L 283.75760649087 344.13609533333334 L 284.10623732252 342.502678 L 284.45486815416 333.5803706666667 L 284.8034989858 327.47911 L 285.15212981744 328.98784333333333 L 285.50076064909 323.549002 L 285.84939148073 319.07261866666664 L 286.19802231237 332.44255799999996 L 286.54665314402 333.36715533333336 L 286.89528397566 310.771454 L 287.2439148073 283.06940199999997 L 287.59254563895 293.0788513333333 L 287.94117647059 286.32228799999996 L 288.28980730223 271.333734 L 288.63843813387 295.2272306666666 L 288.98706896552 303.0296593333333 L 289.33569979716 293.72817599999996 L 289.6843306288 286.862016 L 290.03296146045 295.934058 L 290.38159229209 294.22975866666667 L 290.73022312373 288.61015399999997 L 291.07885395538 289.063628 L 291.42748478702 286.32456533333334 L 291.77611561866 275.379132 L 292.1247464503 279.000092 L 292.47337728195 276.75777266666665 L 292.82200811359 276.3324806666667 L 293.17063894523 288.71178 L 293.51926977688 313.48688933333335 L 293.86790060852 308.26496399999996 L 294.21653144016 281.3465993333333 L 294.56516227181 293.087676 L 294.91379310345 290.2424326666667 L 295.26242393509 294.011704 L 295.61105476673 296.78578066666665 L 295.95968559838 314.7337293333333 L 296.30831643002 303.34649333333334 L 296.65694726166 300.8425653333333 L 297.00557809331 291.50322133333333 L 297.35420892495 273.1111926666666 L 297.70283975659 287.0914573333333 L 298.05147058824 282.22137999999995 L 298.40010141988 296.14471133333336 L 298.74873225152 294.75439933333337 L 299.09736308316 276.08652866666665 L 299.44599391481 277.8221413333333 L 299.79462474645 271.432798 L 300.14325557809 274.11464266666667 L 300.49188640974 277.3994113333333 L 300.84051724138 267.2547453333333 L 301.18914807302 272.572888 L 301.53777890467 253.72482333333332 L 301.88640973631 245.1011313333333 L 302.23504056795 238.10117799999998 L 302.58367139959 240.41324066666667 L 302.93230223124 249.73237333333333 L 303.28093306288 248.29053666666667 L 303.62956389452 229.4959893333333 L 303.97819472617 227.21125466666666 L 304.32682555781 229.70038 L 304.67545638945 201.61630533333332 L 305.0240872211 239.3853093333333 L 305.37271805274 208.8283353333333 L 305.72134888438 225.67718599999998 L 306.06997971602 223.01498333333333 L 306.41861054767 191.04008466666664 L 306.76724137931 178.67388 L 307.11587221095 168.05837533333334 L 307.4645030426 158.68487133333332 L 307.81313387424 169.56283866666666 L 308.16176470588 170.84070733333334 L 308.51039553753 177.4686013333333 L 308.85902636917 146.882022 L 309.20765720081 116.07738799999998 L 309.55628803245 146.28906133333334 L 309.9049188641 121.64803 L 310.25354969574 112.863786 L 310.60218052738 165.42520866666666 L 310.95081135903 211.15605466666665 L 311.29944219067 212.827902 L 311.64807302231 195.42082 L 311.99670385396 167.16993066666663 L 312.3453346856 156.708146 L 312.69396551724 116.65896199999997 L 313.04259634888 103.4310713333333 L 313.39122718053 157.4260753333333 L 313.73985801217 168.25365666666664 L 314.08848884381 98.51288533333332 L 314.43711967546 74.57412666666664 L 314.7857505071 42.73131333333333 L 315.13438133874 65.02441399999998 L 315.48301217039 77.87996066666665 L 315.83164300203 98.85847066666662 L 316.18027383367 80.99535266666663 L 316.52890466531 69.39034666666663 L 316.87753549696 91.75233666666662 L 317.2261663286 92.81129666666664 L 317.57479716024 108.527174 L 317.92342799189 91.28662199999997 L 318.27205882353 119.10652599999997 L 318.62068965517 83.57243999999997 L 318.96932048682 63.214218666666625 L 319.31795131846 63.457039333333285 L 319.6665821501 83.92428799999999 L 320.01521298174 130.0195073333333 L 320.36384381339 146.74879799999997 L 320.71247464503 140.47445999999997 L 321.06110547667 150.04466866666667 L 321.40973630832 162.68870799999996 L 321.75836713996 166.909176 L 322.1069979716 202.53606333333332 L 322.45562880325 155.59054466666663 L 322.80425963489 190.15961066666665 L 323.15289046653 173.901728 L 323.50152129817 160.31145666666663 L 323.85015212982 168.92746266666666 L 324.19878296146 177.26648799999998 L 324.5474137931 139.83993799999996 L 324.89604462475 147.70413933333333 L 325.24467545639 195.1429853333333 L 325.59330628803 199.01729866666665 L 325.94193711968 177.70003533333332 L 326.29056795132 174.15365799999998 L 326.63919878296 193.96474999999998 L 326.9878296146 233.04407466666666 L 327.33646044625 202.168274 L 327.68509127789 185.49164666666664 L 328.03372210953 206.81147199999998 L 328.38235294118 191.00564 L 328.73098377282 214.68933733333333 L 329.07961460446 214.52935466666665 L 329.42824543611 205.72347599999998 L 329.77687626775 226.37888933333332 L 330.12550709939 207.21484466666666 L 330.47413793103 211.76581066666665 L 330.82276876268 196.02602133333332 L 331.17139959432 174.5299873333333 L 331.52003042596 184.88986133333333 L 331.86866125761 210.11445933333331 L 332.21729208925 218.31542133333332 L 332.56592292089 218.37890199999998 L 332.91455375254 230.414324 L 333.26318458418 217.07171266666666 L 333.61181541582 229.27537266666664 L 333.96044624746 221.93524266666665 L 334.30907707911 232.17299466666665 L 334.65770791075 215.01841199999998 L 335.00633874239 235.28696333333332 L 335.35496957404 243.89072866666666 L 335.70360040568 212.71545866666665 L 336.05223123732 224.14909533333332 L 336.40086206897 203.89050733333332 L 336.74949290061 230.54043133333332 L 337.09812373225 241.950156 L 337.44675456389 258.65468066666665 L 337.79538539554 253.6667513333333 L 338.14401622718 234.02218933333333 L 338.49264705882 227.991526 L 338.84127789047 235.93230266666666 L 339.18990872211 240.676842 L 339.53853955375 240.66175466666667 L 339.8871703854 258.1348793333333 L 340.23580121704 232.26124133333332 L 340.58443204868 226.6256953333333 L 340.93306288032 238.610162 L 341.28169371197 228.339104 L 341.63032454361 250.66237933333332 L 341.97895537525 234.25134599999998 L 342.3275862069 252.441546 L 342.67621703854 277.15943733333336 L 343.02484787018 248.62359666666666 L 343.37347870183 260.73901 L 343.72210953347 261.933756 L 344.07074036511 260.8477526666667 L 344.41937119675 246.63064533333332 L 344.7680020284 260.64193866666665 L 345.11663286004 271.81652866666667 L 345.46526369168 256.6255766666667 L 345.81389452333 243.11188066666665 L 346.16252535497 248.10379533333332 L 346.51115618661 228.90872199999998 L 346.85978701826 242.54140866666665 L 347.2084178499 274.45709666666664 L 347.55704868154 257.41467266666666 L 347.90567951318 253.41055133333333 L 348.25431034483 264.34488266666665 L 348.60294117647 253.608964 L 348.95157200811 229.83815866666666 L 349.30020283976 219.095408 L 349.6488336714 253.0151493333333 L 349.99746450304 250.51093666666665 L 350.34609533469 237.86689733333333 L 350.69472616633 215.54305266666665 L 351.04335699797 226.79592599999998 L 351.39198782961 195.1908093333333 L 351.74061866126 190.09470666666664 L 352.0892494929 214.60906133333333 L 352.43788032454 213.82508933333332 L 352.78651115619 198.44967333333332 L 353.13514198783 194.61037399999998 L 353.48377281947 199.547348 L 353.83240365112 201.01081933333333 L 354.18103448276 209.37831133333333 L 354.5296653144 206.29195533333333 L 354.87829614604 211.60668199999998 L 355.22692697769 205.49147266666665 L 355.57555780933 223.79383133333332 L 355.92418864097 202.76180399999998 L 356.27281947262 187.997852 L 356.62145030426 142.18359866666663 L 356.9700811359 202.323702 L 357.31871196755 230.21761933333332 L 357.66734279919 202.15233266666667 L 358.01597363083 193.545436 L 358.36460446247 190.40584733333333 L 358.71323529412 183.65924733333333 L 359.06186612576 191.8371513333333 L 359.4104969574 202.54403399999998 L 359.75912778905 209.95903133333331 L 360.10775862069 198.75768266666665 L 360.45638945233 205.18488666666664 L 360.80502028398 197.20084066666666 L 361.15365111562 189.08670199999997 L 361.50228194726 190.20544199999998 L 361.8509127789 186.090016 L 362.19954361055 205.7334393333333 L 362.54817444219 198.63726866666664 L 362.89680527383 192.8875713333333 L 363.24543610548 189.76534733333332 L 363.59406693712 196.08779399999997 L 363.94269776876 199.02811599999998 L 364.29132860041 210.10335733333332 L 364.63995943205 206.09183466666664 L 364.98859026369 181.90143066666664 L 365.33722109533 195.79857266666664 L 365.68585192698 194.37979399999998 L 366.03448275862 189.917644 L 366.38311359026 211.15377733333332 L 366.73174442191 208.37116066666664 L 367.08037525355 196.420854 L 367.42900608519 197.22702999999998 L 367.77763691684 204.77382799999998 L 368.12626774848 212.34140666666664 L 368.47489858012 206.14762933333333 L 368.82352941176 222.03516066666666 L 369.17216024341 207.96978066666665 L 369.52079107505 207.4422933333333 L 369.86942190669 208.09560333333332 L 370.21805273834 207.75001799999998 L 370.56668356998 199.93933399999997 L 370.91531440162 208.96924533333333 L 371.26394523327 209.57074599999999 L 371.61257606491 244.8773833333333 L 371.96120689655 242.38000266666666 L 372.30983772819 228.94231266666665 L 372.65846855984 205.3115633333333 L 373.00709939148 198.391032 L 373.35573022312 212.9207033333333 L 373.70436105477 207.676574 L 374.05299188641 234.588676 L 374.40162271805 235.705708 L 374.7502535497 188.65856333333332 L 375.09888438134 218.57560666666666 L 375.44751521298 207.25498266666665 L 375.79614604462 214.98482133333331 L 376.14477687627 217.74381066666666 L 376.49340770791 246.81140866666667 L 376.84203853955 249.75713933333333 L 377.1906693712 287.6388713333333 L 377.53930020284 263.7345573333333 L 377.88793103448 299.72211733333336 L 378.23656186613 276.813852 L 378.58519269777 296.31665 L 378.93382352941 289.1914433333333 L 379.28245436105 247.23157666666665 L 379.6310851927 241.41839866666666 L 379.97971602434 230.07585533333332 L 380.32834685598 243.69744 L 380.67697768763 265.862156 L 381.02560851927 266.64242733333333 L 381.37423935091 282.1186153333333 L 381.72287018256 297.8450253333333 L 382.0715010142 226.5949513333333 L 382.42013184584 227.365544 L 382.76876267748 214.59739 L 383.11739350913 217.85483066666666 L 383.46602434077 235.81558933333332 L 383.81465517241 250.326188 L 384.16328600406 234.74865866666664 L 384.5119168357 211.03564066666667 L 384.86054766734 203.56228666666667 L 385.20917849899 202.81731399999998 L 385.55780933063 220.43732666666665 L 385.90644016227 202.47913 L 386.25507099391 226.60235266666666 L 386.60370182556 223.07789466666665 L 386.9523326572 211.30465066666665 L 387.30096348884 214.90539933333332 L 387.64959432049 211.29155599999999 L 387.99822515213 204.980496 L 388.34685598377 212.5919133333333 L 388.69548681542 221.88400266666665 L 389.04411764706 226.52378466666664 L 389.3927484787 227.86541866666664 L 389.74137931034 245.85464399999998 L 390.09001014199 265.97459933333334 L 390.43864097363 273.69845999999995 L 390.78727180527 252.24541066666666 L 391.13590263692 239.88518399999998 L 391.48453346856 244.26478066666667 L 391.8331643002 229.173462 L 392.18179513185 230.48093599999999 L 392.53042596349 242.37516333333332 L 392.87905679513 222.97029066666664 L 393.22768762677 254.13047333333333 L 393.57631845842 248.36540399999998 L 393.92494929006 256.29678666666666 L 394.2735801217 238.04709133333333 L 394.62221095335 254.59476466666666 L 394.97084178499 257.64667599999996 L 395.31947261663 256.3261073333333 L 395.66810344828 257.27404733333333 L 396.01673427992 262.679298 L 396.36536511156 263.5808373333333 L 396.7139959432 243.12383666666665 L 397.06262677485 252.25907466666666 L 397.41125760649 271.3325953333333 L 397.75988843813 258.23622066666667 L 398.10851926978 262.67388933333336 L 398.45715010142 240.1863613333333 L 398.80578093306 250.43066066666665 L 399.15441176471 247.25321133333333 L 399.50304259635 259.183022 L 399.85167342799 248.52624066666667 L 400.20030425963 259.3430046666666 L 400.54893509128 261.2716213333333 L 400.89756592292 272.3300673333333 L 401.24619675456 265.98370866666664 L 401.59482758621 267.12806866666665 L 401.94345841785 268.3504273333333 L 402.29208924949 264.5484193333333 L 402.64072008114 268.79564600000003 L 402.98935091278 280.56917466666664 L 403.33798174442 290.4468233333333 L 403.68661257606 296.49969066666665 L 404.03524340771 269.3743733333333 L 404.38387423935 284.52063266666664 L 404.73250507099 282.60141 L 405.08113590264 285.19443866666666 L 405.42976673428 271.946052 L 405.77839756592 293.11870466666664 L 406.12702839757 293.597514 L 406.47565922921 290.2640673333333 L 406.82429006085 279.227256 L 407.17292089249 286.5150073333333 L 407.52155172414 283.51462066666664 L 407.87018255578 284.5508073333333 L 408.21881338742 303.3649966666667 L 408.56744421907 290.5447486666667 L 408.91607505071 291.4109893333333 L 409.26470588235 287.4387506666667 L 409.613336714 267.8696253333333 L 409.96196754564 267.81980866666663 L 410.31059837728 257.5205686666667 L 410.65922920892 257.09243 L 411.00786004057 285.3023273333333 L 411.35649087221 272.47097733333334 L 411.70512170385 274.12602933333335 L 412.0537525355 279.89223733333336 L 412.40238336714 264.59055 L 412.75101419878 266.97748 L 413.09964503043 272.768454 L 413.44827586207 281.33065799999997 L 413.79690669371 267.01420199999995 L 414.14553752535 263.18856666666665 L 414.494168357 261.7925613333333 L 414.84279918864 265.938162 L 415.19143002028 255.88145799999998 L 415.54006085193 274.9652266666667 L 415.88869168357 282.385348 L 416.23732251521 262.657948 L 416.58595334686 268.65957533333335 L 416.9345841785 275.35550466666666 L 417.28321501014 274.0668186666667 L 417.63184584178 270.0866093333333 L 417.98047667343 284.9043633333333 L 418.32910750507 281.859284 L 418.67773833671 252.01682333333332 L 419.02636916836 253.809654 L 419.375 260.26874066666664 L 419.72363083164 259.3040053333333 L 420.07226166329 270.8506546666666 L 420.42089249493 283.2390633333333 L 420.76952332657 281.57860266666665 L 421.11815415822 261.22322799999995 L 421.46678498986 257.00674533333336 L 421.8154158215 266.2766306666666 L 422.16404665314 268.8984106666667 L 422.51267748479 271.045936 L 422.86130831643 287.76383999999996 L 423.20993914807 276.753218 L 423.55856997972 264.40921733333334 L 423.90720081136 269.41138 L 424.255831643 261.2724753333333 L 424.60446247465 266.71814866666665 L 424.95309330629 269.83354066666664 L 425.30172413793 283.077942 L 425.65035496957 288.9933153333333 L 425.99898580122 249.66917733333332 L 426.34761663286 248.869264 L 426.6962474645 262.026842 L 427.04487829615 265.05455666666666 L 427.39350912779 267.58894399999997 L 427.74213995943 285.494762 L 428.09077079108 276.400516 L 428.43940162272 268.33021599999995 L 428.78803245436 265.92848333333336 L 429.136663286 249.77222666666665 L 429.48529411765 268.841762 L 429.83392494929 256.4735646666667 L 430.18255578093 277.33450733333336 L 430.53118661258 286.8272866666666 L 430.87981744422 270.9742 L 431.22844827586 266.10583066666663 L 431.57707910751 257.3566006666666 L 431.92570993915 258.7839193333333 L 432.27434077079 264.0519606666667 L 432.62297160243 269.678682 L 432.97160243408 282.51601 L 433.32023326572 268.9021113333333 L 433.66886409736 274.4169586666667 L 434.01749492901 275.0107733333333 L 434.36612576065 265.967198 L 434.71475659229 265.506892 L 435.06338742394 269.88791200000003 L 435.41201825558 279.91358733333334 L 435.76064908722 264.725482 L 436.10927991886 268.63424 L 436.45791075051 256.81943466666667 L 436.80654158215 255.50854466666667 L 437.15517241379 254.34226533333333 L 437.50380324544 285.9331486666666 L 437.85243407708 272.23954333333336 L 438.20106490872 251.77314866666666 L 438.54969574037 274.70304866666663 L 438.89832657201 267.5732873333333 L 439.24695740365 270.8856686666667 L 439.59558823529 264.11686466666663 L 439.94421906694 272.21363866666667 L 440.29284989858 295.94088999999997 L 440.64148073022 278.3926133333333 L 440.99011156187 299.42150933333335 L 441.33874239351 259.058338 L 441.68737322515 257.1621733333333 L 442.0360040568 270.60470266666664 L 442.38463488844 281.48153133333335 L 442.73326572008 288.26143733333333 L 443.08189655172 270.15891466666665 L 443.43052738337 269.47486066666664 L 443.77915821501 267.91488733333335 L 444.12778904665 261.0851646666666 L 444.4764198783 272.75678266666665 L 444.82505070994 298.12940733333335 L 445.17368154158 289.97655399999996 L 445.52231237323 262.679298 L 445.87094320487 273.30960533333337 L 446.21957403651 282.478434 L 446.56820486815 279.80399066666666 L 446.9168356998 273.593418 L 447.26546653144 273.52908333333335 L 447.61409736308 273.93331 L 447.96272819473 261.1102153333333 L 448.31135902637 254.61782266666665 L 448.65998985801 275.0395246666667 L 449.00862068966 278.9363266666667 L 449.3572515213 283.270946 L 449.70588235294 294.8064933333333 L 450.05451318458 287.850948 L 450.40314401623 265.1487813333333 L 450.75177484787 265.8712653333333 L 451.10040567951 268.9112206666666 L 451.44903651116 279.8111073333333 L 451.7976673428 284.9923253333333 L 452.14629817444 298.81061466666665 L 452.49492900609 306.1937293333333 L 452.84355983773 308.466508 L 453.19219066937 308.9159966666667 L 453.54082150101 304.85949666666664 L 453.88945233266 304.970232 L 454.2380831643 292.6509973333333 L 454.58671399594 308.257278 L 454.93534482759 318.4990153333333 L 455.28397565923 304.8760073333333 L 455.63260649087 302.284402 L 455.98123732252 287.12789466666663 L 456.32986815416 291.8453906666666 L 456.6784989858 293.60548466666665 L 457.02712981744 297.6733713333333 L 457.37576064909 299.48499 L 457.72439148073 281.1211433333333 L 458.07302231237 275.1012973333333 L 458.42165314402 276.050376 L 458.77028397566 271.9087606666667 L 459.1189148073 275.88783133333334 L 459.46754563895 291.43461666666667 L 459.81617647059 273.222782 L 460.16480730223 263.670792 L 460.51343813387 269.31601666666666 L 460.86206896552 273.41777866666666 L 461.21069979716 272.864956 L 461.5593306288 271.1102706666667 L 461.90796146045 277.00571733333334 L 462.25659229209 286.8352573333333 L 462.60522312373 250.44660199999998 L 462.95385395538 256.74513666666667 L 463.30248478702 262.19735733333334 L 463.65111561866 263.97567 L 463.9997464503 266.9145686666667 L 464.34837728195 268.76689466666664 L 464.69700811359 289.210516 L 465.04563894523 274.301384 L 465.39426977688 266.360892 L 465.74290060852 263.8060086666667 L 466.09153144016 263.650296 L 466.44016227181 269.57591733333334 L 466.78879310345 283.475906 L 467.13742393509 286.12643733333334 L 467.48605476673 263.61841333333336 L 467.83468559838 245.96908 L 468.18331643002 247.57089933333333 L 468.53194726166 250.98547599999998 L 468.88057809331 248.03006666666667 L 469.22920892495 267.0805293333333 L 469.57783975659 270.69721933333335 L 469.92647058824 242.34527333333332 L 470.27510141988 247.94181999999998 L 470.62373225152 248.81346933333333 L 470.97236308316 246.41686066666665 L 471.32099391481 244.71313066666664 L 471.66962474645 236.85206066666666 L 472.01825557809 243.03985999999998 L 472.36688640974 231.27060133333333 L 472.71551724138 210.96646666666666 L 473.06414807302 214.46644333333333 L 473.41277890467 235.27130666666665 L 473.76140973631 249.958968 L 474.11004056795 267.86023133333333 L 474.45867139959 263.918452 L 474.80730223124 236.84266666666664 L 475.15593306288 239.99848133333333 L 475.50456389452 235.11473999999998 L 475.85319472617 219.46889066666665 L 476.20182555781 229.21559266666665 L 476.55045638945 252.13182866666665 L 476.8990872211 270.13301 L 477.24771805274 249.92082266666665 L 477.59634888438 240.12743533333332 L 477.94497971602 232.88693866666665 L 478.29361054767 228.4023 L 478.64224137931 229.673906 L 478.99087221095 231.4841013333333 L 479.3395030426 247.32124666666667 L 479.68813387424 222.23755866666664 L 480.03676470588 219.40170933333332 L 480.38539553753 236.58162733333333 L 480.73402636917 233.19551733333333 L 481.08265720081 238.81796866666664 L 481.43128803245 266.82176733333336 L 481.7799188641 258.0554573333333 L 482.12854969574 247.94779799999998 L 482.47718052738 225.52118866666666 L 482.82581135903 226.65444666666664 L 483.17444219067 248.71098933333332 L 483.52307302231 236.02225733333333 L 483.87170385396 249.54022333333333 L 484.2203346856 245.535248 L 484.56896551724 225.98690333333332 L 484.91759634888 239.64777199999997 L 485.26622718053 231.43513866666666 L 485.61485801217 222.48407999999998 L 485.96348884381 217.26841733333333 L 486.31211967546 215.68140066666666 L 486.6607505071 223.227914 L 487.00938133874 211.02482333333333 L 487.35801217039 190.50320333333332 L 487.70664300203 185.71482533333332 L 488.05527383367 168.463456 L 488.40390466531 196.32890666666665 L 488.75253549696 217.65043999999997 L 489.1011663286 212.80797533333333 L 489.44979716024 182.1408353333333 L 489.79842799189 195.62321799999998 L 490.14705882353 178.37668799999997" class="highcharts-graph" data-z-index="1" stroke="#7cb5ec" stroke-width="2" stroke-linejoin="round" stroke-linecap="round"></path></g><g data-z-index="0.1" class="highcharts-markers highcharts-series-0 highcharts-line-series highcharts-color-0 " transform="translate(95,86) scale(1 1)" clip-path="none"></g></g><text x="300" text-anchor="middle" class="highcharts-title" data-z-index="4" style="color:#333333;font-size:18px;fill:#333333;" y="24"><tspan>Ethereum Transaction Chart</tspan></text><text x="300" text-anchor="middle" class="highcharts-subtitle" data-z-index="4" style="color:#666666;fill:#666666;" y="52"><tspan>Source: Etherscan.io</tspan><tspan x="300" dy="15">Click and drag in the plot area to zoom in</tspan></text><g class="highcharts-axis-labels highcharts-xaxis-labels " data-z-index="7"><text x="153.89072008114" style="color:#666666;cursor:default;font-size:11px;fill:#666666;" text-anchor="middle" transform="translate(0,0)" y="532" opacity="1">2016</text><text x="281.48960446247" style="color:#666666;cursor:default;font-size:11px;fill:#666666;" text-anchor="middle" transform="translate(0,0)" y="532" opacity="1">2017</text><text x="408.73985801217" style="color:#666666;cursor:default;font-size:11px;fill:#666666;" text-anchor="middle" transform="translate(0,0)" y="532" opacity="1">2018</text><text x="535.99011156187" style="color:#666666;cursor:default;font-size:11px;fill:#666666;" text-anchor="middle" transform="translate(0,0)" y="532" opacity="1">2019</text></g><g class="highcharts-axis-labels highcharts-yaxis-labels " data-z-index="7"><text x="80" style="color:#666666;cursor:default;font-size:11px;fill:#666666;" text-anchor="end" transform="translate(0,0)" y="517" opacity="1">0</text><text x="80" style="color:#666666;cursor:default;font-size:11px;fill:#666666;" text-anchor="end" transform="translate(0,0)" y="446" opacity="1"><tspan>250 k</tspan></text><text x="80" style="color:#666666;cursor:default;font-size:11px;fill:#666666;" text-anchor="end" transform="translate(0,0)" y="375" opacity="1"><tspan>500 k</tspan></text><text x="80" style="color:#666666;cursor:default;font-size:11px;fill:#666666;" text-anchor="end" transform="translate(0,0)" y="304" opacity="1"><tspan>750 k</tspan></text><text x="80" style="color:#666666;cursor:default;font-size:11px;fill:#666666;" text-anchor="end" transform="translate(0,0)" y="232" opacity="1"><tspan>1 000 k</tspan></text><text x="80" style="color:#666666;cursor:default;font-size:11px;fill:#666666;" text-anchor="end" transform="translate(0,0)" y="161" opacity="1"><tspan>1 250 k</tspan></text><text x="80" style="color:#666666;cursor:default;font-size:11px;fill:#666666;" text-anchor="end" transform="translate(0,0)" y="90" opacity="1"><tspan>1 500 k</tspan></text></g></svg>